<mxfile host="Electron" modified="2023-07-01T23:00:56.148Z" agent="Mozilla/5.0 (X11; Linux x86_64) AppleWebKit/537.36 (KHTML, like Gecko) draw.io/21.4.0 Chrome/106.0.5249.199 Electron/21.4.4 Safari/537.36" etag="bReO2-G-FgjWDCvVyHhn" version="21.4.0" type="device">
  <diagram name="Page-1" id="bEtYPRKD9bZJMX1dU_jv">
    <mxGraphModel dx="1793" dy="1108" grid="1" gridSize="10" guides="1" tooltips="1" connect="1" arrows="1" fold="1" page="1" pageScale="1" pageWidth="850" pageHeight="1100" math="0" shadow="0">
      <root>
        <mxCell id="0" />
        <mxCell id="1" parent="0" />
        <mxCell id="iLg3TH4MNfudF1EWEq4q-12" value="" style="group" vertex="1" connectable="0" parent="1">
          <mxGeometry x="162.87" y="590" width="440" height="40" as="geometry" />
        </mxCell>
        <mxCell id="iLg3TH4MNfudF1EWEq4q-8" value="&lt;b&gt;&amp;nbsp; Legend&lt;/b&gt;" style="text;html=1;align=left;verticalAlign=middle;whiteSpace=wrap;rounded=1;fontFamily=Courier New;perimeterSpacing=6;shadow=0;fillColor=#f5f5f5;fontColor=#333333;strokeColor=#666666;" vertex="1" parent="iLg3TH4MNfudF1EWEq4q-12">
          <mxGeometry width="440" height="40" as="geometry" />
        </mxCell>
        <mxCell id="iLg3TH4MNfudF1EWEq4q-1" value="Keyword" style="rounded=1;whiteSpace=wrap;html=1;fillColor=#fad7ac;strokeColor=#b46504;arcSize=50;fontStyle=1;fontFamily=Courier New;perimeterSpacing=6;shadow=0;" vertex="1" parent="iLg3TH4MNfudF1EWEq4q-12">
          <mxGeometry x="90" y="5" width="70" height="30" as="geometry" />
        </mxCell>
        <mxCell id="iLg3TH4MNfudF1EWEq4q-6" value="&lt;span style=&quot;font-weight: 400;&quot;&gt;Class Identifier&lt;/span&gt;" style="rounded=1;whiteSpace=wrap;html=1;fillColor=#fad9d5;strokeColor=#ae4132;arcSize=50;fontStyle=1;fontFamily=Courier New;perimeterSpacing=6;shadow=0;" vertex="1" parent="iLg3TH4MNfudF1EWEq4q-12">
          <mxGeometry x="183.44" y="5" width="133.12" height="30" as="geometry" />
        </mxCell>
        <mxCell id="iLg3TH4MNfudF1EWEq4q-7" value="&lt;span style=&quot;font-weight: normal;&quot;&gt;Variable&lt;/span&gt;" style="rounded=1;whiteSpace=wrap;html=1;fillColor=#e1d5e7;strokeColor=#9673a6;arcSize=50;fontStyle=1;fontFamily=Courier New;perimeterSpacing=6;shadow=0;" vertex="1" parent="iLg3TH4MNfudF1EWEq4q-12">
          <mxGeometry x="341.88" y="5" width="80" height="30" as="geometry" />
        </mxCell>
        <mxCell id="iLg3TH4MNfudF1EWEq4q-13" value="" style="group" vertex="1" connectable="0" parent="1">
          <mxGeometry x="10" y="280" width="745.75" height="293.5" as="geometry" />
        </mxCell>
        <mxCell id="y_gY72rm-RhrGz0yiHBs-56" style="edgeStyle=orthogonalEdgeStyle;shape=connector;rounded=1;orthogonalLoop=1;jettySize=auto;html=1;labelBackgroundColor=default;strokeColor=#4F4F4F;strokeWidth=2;fontFamily=Helvetica;fontSize=12;fontColor=default;endArrow=doubleBlock;endFill=1;" parent="iLg3TH4MNfudF1EWEq4q-13" edge="1">
          <mxGeometry relative="1" as="geometry">
            <mxPoint x="20" y="43.587777777777774" as="targetPoint" />
            <mxPoint y="43.81" as="sourcePoint" />
          </mxGeometry>
        </mxCell>
        <mxCell id="y_gY72rm-RhrGz0yiHBs-4" value="&lt;p&gt;&lt;font face=&quot;Courier New&quot;&gt;&lt;span&gt;campus:&lt;/span&gt;&lt;/font&gt;&lt;/p&gt;" style="rounded=1;whiteSpace=wrap;html=1;arcSize=50;fillColor=#fad7ac;strokeColor=#b46504;fontStyle=1" parent="iLg3TH4MNfudF1EWEq4q-13" vertex="1">
          <mxGeometry x="40" y="30" width="75" height="27.5" as="geometry" />
        </mxCell>
        <mxCell id="y_gY72rm-RhrGz0yiHBs-7" value="&lt;p&gt;&lt;font face=&quot;Courier New&quot;&gt;locations:&lt;/font&gt;&lt;/p&gt;" style="rounded=1;whiteSpace=wrap;html=1;arcSize=50;fillColor=#fad7ac;strokeColor=#b46504;fontStyle=1" parent="iLg3TH4MNfudF1EWEq4q-13" vertex="1">
          <mxGeometry x="140" y="30" width="80" height="27.5" as="geometry" />
        </mxCell>
        <mxCell id="y_gY72rm-RhrGz0yiHBs-8" value="" style="edgeStyle=orthogonalEdgeStyle;shape=connector;rounded=1;orthogonalLoop=1;jettySize=auto;html=1;labelBackgroundColor=default;strokeColor=#4F4F4F;fontFamily=Helvetica;fontSize=12;fontColor=default;endArrow=none;endFill=0;fontStyle=1;strokeWidth=2;" parent="iLg3TH4MNfudF1EWEq4q-13" source="y_gY72rm-RhrGz0yiHBs-4" target="y_gY72rm-RhrGz0yiHBs-7" edge="1">
          <mxGeometry relative="1" as="geometry" />
        </mxCell>
        <mxCell id="y_gY72rm-RhrGz0yiHBs-10" value="&lt;p&gt;&lt;font face=&quot;Courier New&quot;&gt;gateways:&lt;/font&gt;&lt;/p&gt;" style="rounded=1;whiteSpace=wrap;html=1;arcSize=50;fontStyle=1;fillColor=#d5e8d4;strokeColor=#82b366;" parent="iLg3TH4MNfudF1EWEq4q-13" vertex="1">
          <mxGeometry x="20" y="110" width="82.5" height="27.5" as="geometry" />
        </mxCell>
        <mxCell id="y_gY72rm-RhrGz0yiHBs-21" value="&lt;p&gt;&lt;font face=&quot;Courier New&quot;&gt;&lt;span style=&quot;font-weight: normal;&quot;&gt;location-identifier:&lt;/span&gt;&lt;/font&gt;&lt;/p&gt;" style="rounded=1;whiteSpace=wrap;html=1;arcSize=50;fillColor=#fad9d5;strokeColor=#ae4132;fontStyle=1" parent="iLg3TH4MNfudF1EWEq4q-13" vertex="1">
          <mxGeometry x="260" y="30" width="160" height="27.5" as="geometry" />
        </mxCell>
        <mxCell id="y_gY72rm-RhrGz0yiHBs-22" value="" style="edgeStyle=orthogonalEdgeStyle;shape=connector;rounded=1;orthogonalLoop=1;jettySize=auto;html=1;labelBackgroundColor=default;strokeColor=#4F4F4F;fontFamily=Helvetica;fontSize=12;fontColor=default;endArrow=none;endFill=0;strokeWidth=2;" parent="iLg3TH4MNfudF1EWEq4q-13" source="y_gY72rm-RhrGz0yiHBs-7" target="y_gY72rm-RhrGz0yiHBs-21" edge="1">
          <mxGeometry relative="1" as="geometry">
            <mxPoint x="240" y="43.77142857142849" as="sourcePoint" />
          </mxGeometry>
        </mxCell>
        <mxCell id="y_gY72rm-RhrGz0yiHBs-34" value="" style="edgeStyle=orthogonalEdgeStyle;shape=connector;rounded=1;orthogonalLoop=1;jettySize=auto;html=1;labelBackgroundColor=default;strokeColor=#4F4F4F;strokeWidth=2;fontFamily=Helvetica;fontSize=12;fontColor=default;endArrow=none;endFill=0;" parent="iLg3TH4MNfudF1EWEq4q-13" source="y_gY72rm-RhrGz0yiHBs-7" target="y_gY72rm-RhrGz0yiHBs-21" edge="1">
          <mxGeometry relative="1" as="geometry" />
        </mxCell>
        <mxCell id="y_gY72rm-RhrGz0yiHBs-29" style="shape=connector;orthogonalLoop=1;jettySize=auto;html=1;exitX=1;exitY=0.5;exitDx=0;exitDy=0;entryX=0;entryY=0.5;entryDx=0;entryDy=0;labelBackgroundColor=default;strokeColor=#4F4F4F;strokeWidth=2;fontFamily=Helvetica;fontSize=12;fontColor=default;endArrow=none;endFill=0;elbow=vertical;edgeStyle=orthogonalEdgeStyle;jumpStyle=none;rounded=1;startArrow=none;startFill=0;" parent="iLg3TH4MNfudF1EWEq4q-13" source="y_gY72rm-RhrGz0yiHBs-25" target="y_gY72rm-RhrGz0yiHBs-21" edge="1">
          <mxGeometry relative="1" as="geometry">
            <Array as="points">
              <mxPoint x="660" y="44" />
              <mxPoint x="660" y="20" />
              <mxPoint x="240" y="20" />
              <mxPoint x="240" y="44" />
            </Array>
          </mxGeometry>
        </mxCell>
        <mxCell id="y_gY72rm-RhrGz0yiHBs-35" style="edgeStyle=orthogonalEdgeStyle;shape=connector;rounded=1;orthogonalLoop=1;jettySize=auto;html=1;exitX=1;exitY=0.5;exitDx=0;exitDy=0;entryX=0;entryY=0.5;entryDx=0;entryDy=0;labelBackgroundColor=default;strokeColor=#4F4F4F;strokeWidth=2;fontFamily=Helvetica;fontSize=12;fontColor=default;endArrow=none;endFill=0;" parent="iLg3TH4MNfudF1EWEq4q-13" source="y_gY72rm-RhrGz0yiHBs-25" target="y_gY72rm-RhrGz0yiHBs-7" edge="1">
          <mxGeometry relative="1" as="geometry">
            <Array as="points">
              <mxPoint x="660" y="44" />
              <mxPoint x="660" />
              <mxPoint x="130" />
              <mxPoint x="130" y="44" />
            </Array>
          </mxGeometry>
        </mxCell>
        <mxCell id="y_gY72rm-RhrGz0yiHBs-60" style="edgeStyle=orthogonalEdgeStyle;shape=connector;rounded=1;orthogonalLoop=1;jettySize=auto;html=1;exitX=1;exitY=0.5;exitDx=0;exitDy=0;entryX=0;entryY=0.5;entryDx=0;entryDy=0;labelBackgroundColor=default;strokeColor=#4F4F4F;strokeWidth=2;fontFamily=Helvetica;fontSize=12;fontColor=default;endArrow=none;endFill=0;" parent="iLg3TH4MNfudF1EWEq4q-13" source="y_gY72rm-RhrGz0yiHBs-25" target="y_gY72rm-RhrGz0yiHBs-10" edge="1">
          <mxGeometry relative="1" as="geometry">
            <Array as="points">
              <mxPoint x="660" y="44" />
              <mxPoint x="660" y="70" />
              <mxPoint y="70" />
              <mxPoint y="124" />
            </Array>
          </mxGeometry>
        </mxCell>
        <mxCell id="y_gY72rm-RhrGz0yiHBs-25" value="&lt;p&gt;&lt;font face=&quot;Courier New&quot;&gt;&lt;span style=&quot;font-weight: normal;&quot;&gt;location name&lt;/span&gt;&lt;/font&gt;&lt;/p&gt;" style="rounded=1;whiteSpace=wrap;html=1;arcSize=50;fillColor=#e1d5e7;strokeColor=#9673a6;fontStyle=1" parent="iLg3TH4MNfudF1EWEq4q-13" vertex="1">
          <mxGeometry x="530" y="30" width="120" height="27.5" as="geometry" />
        </mxCell>
        <mxCell id="y_gY72rm-RhrGz0yiHBs-28" style="edgeStyle=orthogonalEdgeStyle;shape=connector;rounded=1;orthogonalLoop=1;jettySize=auto;html=1;exitX=1;exitY=0.5;exitDx=0;exitDy=0;entryX=0;entryY=0.5;entryDx=0;entryDy=0;labelBackgroundColor=default;strokeColor=#4F4F4F;strokeWidth=2;fontFamily=Helvetica;fontSize=12;fontColor=default;endArrow=none;endFill=0;" parent="iLg3TH4MNfudF1EWEq4q-13" source="y_gY72rm-RhrGz0yiHBs-26" target="y_gY72rm-RhrGz0yiHBs-25" edge="1">
          <mxGeometry relative="1" as="geometry" />
        </mxCell>
        <mxCell id="y_gY72rm-RhrGz0yiHBs-26" value="&lt;p&gt;&lt;font face=&quot;Courier New&quot;&gt;name:&lt;/font&gt;&lt;/p&gt;" style="rounded=1;whiteSpace=wrap;html=1;arcSize=50;fillColor=#fad7ac;strokeColor=#b46504;fontStyle=1" parent="iLg3TH4MNfudF1EWEq4q-13" vertex="1">
          <mxGeometry x="440" y="30" width="60" height="27.5" as="geometry" />
        </mxCell>
        <mxCell id="y_gY72rm-RhrGz0yiHBs-24" value="" style="edgeStyle=orthogonalEdgeStyle;shape=connector;rounded=1;orthogonalLoop=1;jettySize=auto;html=1;labelBackgroundColor=default;strokeColor=#4F4F4F;fontFamily=Helvetica;fontSize=12;fontColor=default;endArrow=none;endFill=0;strokeWidth=2;" parent="iLg3TH4MNfudF1EWEq4q-13" source="y_gY72rm-RhrGz0yiHBs-21" target="y_gY72rm-RhrGz0yiHBs-26" edge="1">
          <mxGeometry relative="1" as="geometry">
            <mxPoint x="429.9999999999998" y="43.75862068965523" as="targetPoint" />
          </mxGeometry>
        </mxCell>
        <mxCell id="y_gY72rm-RhrGz0yiHBs-37" value="" style="endArrow=none;html=1;rounded=1;labelBackgroundColor=default;strokeColor=#4F4F4F;strokeWidth=2;fontFamily=Helvetica;fontSize=12;fontColor=default;shape=connector;startArrow=classicThin;startFill=1;" parent="iLg3TH4MNfudF1EWEq4q-13" edge="1">
          <mxGeometry width="50" height="50" relative="1" as="geometry">
            <mxPoint x="357" as="sourcePoint" />
            <mxPoint x="384" as="targetPoint" />
            <Array as="points">
              <mxPoint x="387" />
            </Array>
          </mxGeometry>
        </mxCell>
        <mxCell id="y_gY72rm-RhrGz0yiHBs-43" value="" style="endArrow=none;html=1;rounded=1;labelBackgroundColor=default;strokeColor=#4F4F4F;strokeWidth=2;fontFamily=Helvetica;fontSize=12;fontColor=default;shape=connector;startArrow=classicThin;startFill=1;" parent="iLg3TH4MNfudF1EWEq4q-13" edge="1">
          <mxGeometry width="50" height="50" relative="1" as="geometry">
            <mxPoint x="440" y="20" as="sourcePoint" />
            <mxPoint x="467" y="20" as="targetPoint" />
            <Array as="points">
              <mxPoint x="470" y="20" />
            </Array>
          </mxGeometry>
        </mxCell>
        <mxCell id="y_gY72rm-RhrGz0yiHBs-57" value="" style="endArrow=none;html=1;rounded=1;labelBackgroundColor=default;strokeColor=#4F4F4F;strokeWidth=2;fontFamily=Helvetica;fontSize=12;fontColor=default;shape=connector;entryX=0;entryY=0.5;entryDx=0;entryDy=0;" parent="iLg3TH4MNfudF1EWEq4q-13" target="y_gY72rm-RhrGz0yiHBs-4" edge="1">
          <mxGeometry width="50" height="50" relative="1" as="geometry">
            <mxPoint x="10" y="44" as="sourcePoint" />
            <mxPoint x="50" y="20" as="targetPoint" />
          </mxGeometry>
        </mxCell>
        <mxCell id="y_gY72rm-RhrGz0yiHBs-61" value="&lt;p&gt;&lt;font face=&quot;Courier New&quot;&gt;&lt;span style=&quot;font-weight: normal;&quot;&gt;gateway-identifier:&lt;/span&gt;&lt;/font&gt;&lt;/p&gt;" style="rounded=1;whiteSpace=wrap;html=1;arcSize=50;fillColor=#fad9d5;strokeColor=#ae4132;fontStyle=1" parent="iLg3TH4MNfudF1EWEq4q-13" vertex="1">
          <mxGeometry x="133.75" y="110" width="150" height="27.5" as="geometry" />
        </mxCell>
        <mxCell id="y_gY72rm-RhrGz0yiHBs-62" style="edgeStyle=orthogonalEdgeStyle;shape=connector;rounded=1;orthogonalLoop=1;jettySize=auto;html=1;exitX=1;exitY=0.5;exitDx=0;exitDy=0;entryX=0;entryY=0.5;entryDx=0;entryDy=0;labelBackgroundColor=default;strokeColor=#4F4F4F;strokeWidth=2;fontFamily=Helvetica;fontSize=12;fontColor=default;endArrow=none;endFill=0;" parent="iLg3TH4MNfudF1EWEq4q-13" source="y_gY72rm-RhrGz0yiHBs-10" target="y_gY72rm-RhrGz0yiHBs-61" edge="1">
          <mxGeometry relative="1" as="geometry" />
        </mxCell>
        <mxCell id="y_gY72rm-RhrGz0yiHBs-63" value="&lt;p&gt;&lt;font face=&quot;Courier New&quot;&gt;ip:&lt;/font&gt;&lt;/p&gt;" style="rounded=1;whiteSpace=wrap;html=1;arcSize=50;fillColor=#fad7ac;strokeColor=#b46504;fontStyle=1" parent="iLg3TH4MNfudF1EWEq4q-13" vertex="1">
          <mxGeometry x="296.75" y="110" width="60" height="27.5" as="geometry" />
        </mxCell>
        <mxCell id="y_gY72rm-RhrGz0yiHBs-67" style="edgeStyle=orthogonalEdgeStyle;shape=connector;rounded=1;orthogonalLoop=1;jettySize=auto;html=1;labelBackgroundColor=default;strokeColor=#4F4F4F;strokeWidth=2;fontFamily=Helvetica;fontSize=12;fontColor=default;endArrow=none;endFill=0;" parent="iLg3TH4MNfudF1EWEq4q-13" source="y_gY72rm-RhrGz0yiHBs-61" target="y_gY72rm-RhrGz0yiHBs-63" edge="1">
          <mxGeometry relative="1" as="geometry" />
        </mxCell>
        <mxCell id="y_gY72rm-RhrGz0yiHBs-64" value="&lt;p&gt;&lt;font face=&quot;Courier New&quot;&gt;&lt;span style=&quot;font-weight: normal;&quot;&gt;ip-address&lt;/span&gt;&lt;/font&gt;&lt;/p&gt;" style="rounded=1;whiteSpace=wrap;html=1;arcSize=50;fillColor=#e1d5e7;strokeColor=#9673a6;fontStyle=1" parent="iLg3TH4MNfudF1EWEq4q-13" vertex="1">
          <mxGeometry x="371.75" y="110" width="100" height="27.5" as="geometry" />
        </mxCell>
        <mxCell id="y_gY72rm-RhrGz0yiHBs-68" style="edgeStyle=orthogonalEdgeStyle;shape=connector;rounded=1;orthogonalLoop=1;jettySize=auto;html=1;labelBackgroundColor=default;strokeColor=#4F4F4F;strokeWidth=2;fontFamily=Helvetica;fontSize=12;fontColor=default;endArrow=none;endFill=0;" parent="iLg3TH4MNfudF1EWEq4q-13" source="y_gY72rm-RhrGz0yiHBs-63" target="y_gY72rm-RhrGz0yiHBs-64" edge="1">
          <mxGeometry relative="1" as="geometry" />
        </mxCell>
        <mxCell id="y_gY72rm-RhrGz0yiHBs-65" value="&lt;p&gt;&lt;font face=&quot;Courier New&quot;&gt;location:&lt;/font&gt;&lt;/p&gt;" style="rounded=1;whiteSpace=wrap;html=1;arcSize=50;fillColor=#fad7ac;strokeColor=#b46504;fontStyle=1" parent="iLg3TH4MNfudF1EWEq4q-13" vertex="1">
          <mxGeometry x="481.75" y="110" width="80" height="27.5" as="geometry" />
        </mxCell>
        <mxCell id="y_gY72rm-RhrGz0yiHBs-69" style="edgeStyle=orthogonalEdgeStyle;shape=connector;rounded=1;orthogonalLoop=1;jettySize=auto;html=1;exitX=1;exitY=0.5;exitDx=0;exitDy=0;entryX=0;entryY=0.5;entryDx=0;entryDy=0;labelBackgroundColor=default;strokeColor=#4F4F4F;strokeWidth=2;fontFamily=Helvetica;fontSize=12;fontColor=default;endArrow=none;endFill=0;" parent="iLg3TH4MNfudF1EWEq4q-13" source="y_gY72rm-RhrGz0yiHBs-64" target="y_gY72rm-RhrGz0yiHBs-65" edge="1">
          <mxGeometry relative="1" as="geometry" />
        </mxCell>
        <mxCell id="y_gY72rm-RhrGz0yiHBs-75" style="edgeStyle=orthogonalEdgeStyle;shape=connector;rounded=1;orthogonalLoop=1;jettySize=auto;html=1;exitX=1;exitY=0.5;exitDx=0;exitDy=0;entryX=0;entryY=0.5;entryDx=0;entryDy=0;labelBackgroundColor=default;strokeColor=#4F4F4F;strokeWidth=2;fontFamily=Helvetica;fontSize=12;fontColor=default;endArrow=none;endFill=0;" parent="iLg3TH4MNfudF1EWEq4q-13" source="y_gY72rm-RhrGz0yiHBs-66" target="y_gY72rm-RhrGz0yiHBs-61" edge="1">
          <mxGeometry relative="1" as="geometry">
            <Array as="points">
              <mxPoint x="740" y="124" />
              <mxPoint x="740" y="90" />
              <mxPoint x="114" y="90" />
              <mxPoint x="114" y="124" />
            </Array>
          </mxGeometry>
        </mxCell>
        <mxCell id="y_gY72rm-RhrGz0yiHBs-79" style="edgeStyle=orthogonalEdgeStyle;shape=connector;rounded=1;orthogonalLoop=1;jettySize=auto;html=1;exitX=1;exitY=0.5;exitDx=0;exitDy=0;entryX=0;entryY=0.5;entryDx=0;entryDy=0;labelBackgroundColor=default;strokeColor=#4F4F4F;strokeWidth=2;fontFamily=Helvetica;fontSize=12;fontColor=default;endArrow=none;endFill=0;" parent="iLg3TH4MNfudF1EWEq4q-13" target="y_gY72rm-RhrGz0yiHBs-78" edge="1">
          <mxGeometry relative="1" as="geometry">
            <mxPoint x="731.75" y="123.75" as="sourcePoint" />
            <mxPoint x="36.25" y="273.75" as="targetPoint" />
            <Array as="points">
              <mxPoint x="740" y="124" />
              <mxPoint x="740" y="150" />
              <mxPoint y="150" />
              <mxPoint y="204" />
            </Array>
          </mxGeometry>
        </mxCell>
        <mxCell id="y_gY72rm-RhrGz0yiHBs-66" value="&lt;p&gt;&lt;font face=&quot;Courier New&quot;&gt;&lt;span style=&quot;font-weight: normal;&quot;&gt;location-identifier&lt;/span&gt;&lt;/font&gt;&lt;/p&gt;" style="rounded=1;whiteSpace=wrap;html=1;arcSize=50;fillColor=#e1d5e7;strokeColor=#9673a6;fontStyle=1" parent="iLg3TH4MNfudF1EWEq4q-13" vertex="1">
          <mxGeometry x="571.75" y="110" width="160" height="27.5" as="geometry" />
        </mxCell>
        <mxCell id="y_gY72rm-RhrGz0yiHBs-70" style="edgeStyle=orthogonalEdgeStyle;shape=connector;rounded=1;orthogonalLoop=1;jettySize=auto;html=1;exitX=1;exitY=0.5;exitDx=0;exitDy=0;labelBackgroundColor=default;strokeColor=#4F4F4F;strokeWidth=2;fontFamily=Helvetica;fontSize=12;fontColor=default;endArrow=none;endFill=0;" parent="iLg3TH4MNfudF1EWEq4q-13" source="y_gY72rm-RhrGz0yiHBs-65" target="y_gY72rm-RhrGz0yiHBs-66" edge="1">
          <mxGeometry relative="1" as="geometry" />
        </mxCell>
        <mxCell id="y_gY72rm-RhrGz0yiHBs-71" value="" style="endArrow=none;html=1;rounded=1;labelBackgroundColor=default;strokeColor=#4F4F4F;strokeWidth=2;fontFamily=Helvetica;fontSize=12;fontColor=default;shape=connector;startArrow=classicThin;startFill=1;" parent="iLg3TH4MNfudF1EWEq4q-13" edge="1">
          <mxGeometry width="50" height="50" relative="1" as="geometry">
            <mxPoint x="390" y="70" as="sourcePoint" />
            <mxPoint x="417" y="70" as="targetPoint" />
            <Array as="points">
              <mxPoint x="420" y="70" />
            </Array>
          </mxGeometry>
        </mxCell>
        <mxCell id="y_gY72rm-RhrGz0yiHBs-76" value="" style="endArrow=none;html=1;rounded=1;labelBackgroundColor=default;strokeColor=#4F4F4F;strokeWidth=2;fontFamily=Helvetica;fontSize=12;fontColor=default;shape=connector;startArrow=classicThin;startFill=1;" parent="iLg3TH4MNfudF1EWEq4q-13" edge="1">
          <mxGeometry width="50" height="50" relative="1" as="geometry">
            <mxPoint x="390" y="90" as="sourcePoint" />
            <mxPoint x="417" y="90" as="targetPoint" />
            <Array as="points">
              <mxPoint x="420" y="90" />
            </Array>
          </mxGeometry>
        </mxCell>
        <mxCell id="y_gY72rm-RhrGz0yiHBs-77" value="&lt;p&gt;&lt;font face=&quot;Courier New&quot;&gt;gateways:&lt;/font&gt;&lt;/p&gt;" style="rounded=1;whiteSpace=wrap;html=1;arcSize=50;fontStyle=1;fillColor=#fad7ac;strokeColor=#b46504;" parent="iLg3TH4MNfudF1EWEq4q-13" vertex="1">
          <mxGeometry x="20" y="110" width="82.5" height="27.5" as="geometry" />
        </mxCell>
        <mxCell id="y_gY72rm-RhrGz0yiHBs-78" value="&lt;p&gt;&lt;font face=&quot;Courier New&quot;&gt;components:&lt;/font&gt;&lt;/p&gt;" style="rounded=1;whiteSpace=wrap;html=1;arcSize=50;fontStyle=1;fillColor=#fad7ac;strokeColor=#b46504;" parent="iLg3TH4MNfudF1EWEq4q-13" vertex="1">
          <mxGeometry x="38.13" y="190" width="93.75" height="27.5" as="geometry" />
        </mxCell>
        <mxCell id="y_gY72rm-RhrGz0yiHBs-80" value="&lt;p&gt;&lt;font face=&quot;Courier New&quot;&gt;&lt;span style=&quot;font-weight: normal;&quot;&gt;component-identifier:&lt;/span&gt;&lt;/font&gt;&lt;/p&gt;" style="rounded=1;whiteSpace=wrap;html=1;arcSize=50;fillColor=#fad9d5;strokeColor=#ae4132;fontStyle=1" parent="iLg3TH4MNfudF1EWEq4q-13" vertex="1">
          <mxGeometry x="154.88" y="190" width="167" height="27.5" as="geometry" />
        </mxCell>
        <mxCell id="y_gY72rm-RhrGz0yiHBs-81" style="edgeStyle=orthogonalEdgeStyle;shape=connector;rounded=1;orthogonalLoop=1;jettySize=auto;html=1;exitX=1;exitY=0.5;exitDx=0;exitDy=0;labelBackgroundColor=default;strokeColor=#4F4F4F;strokeWidth=2;fontFamily=Helvetica;fontSize=12;fontColor=default;endArrow=none;endFill=0;" parent="iLg3TH4MNfudF1EWEq4q-13" source="y_gY72rm-RhrGz0yiHBs-78" target="y_gY72rm-RhrGz0yiHBs-80" edge="1">
          <mxGeometry relative="1" as="geometry" />
        </mxCell>
        <mxCell id="y_gY72rm-RhrGz0yiHBs-82" value="&lt;p&gt;&lt;font face=&quot;Courier New&quot;&gt;name:&lt;/font&gt;&lt;/p&gt;" style="rounded=1;whiteSpace=wrap;html=1;arcSize=50;fillColor=#fad7ac;strokeColor=#b46504;fontStyle=1" parent="iLg3TH4MNfudF1EWEq4q-13" vertex="1">
          <mxGeometry x="341.88" y="190" width="60" height="27.5" as="geometry" />
        </mxCell>
        <mxCell id="y_gY72rm-RhrGz0yiHBs-83" style="edgeStyle=orthogonalEdgeStyle;shape=connector;rounded=1;orthogonalLoop=1;jettySize=auto;html=1;exitX=1;exitY=0.5;exitDx=0;exitDy=0;entryX=0;entryY=0.5;entryDx=0;entryDy=0;labelBackgroundColor=default;strokeColor=#4F4F4F;strokeWidth=2;fontFamily=Helvetica;fontSize=12;fontColor=default;endArrow=none;endFill=0;" parent="iLg3TH4MNfudF1EWEq4q-13" source="y_gY72rm-RhrGz0yiHBs-80" target="y_gY72rm-RhrGz0yiHBs-82" edge="1">
          <mxGeometry relative="1" as="geometry" />
        </mxCell>
        <mxCell id="y_gY72rm-RhrGz0yiHBs-84" value="&lt;p&gt;&lt;font face=&quot;Courier New&quot;&gt;&lt;span style=&quot;font-weight: normal;&quot;&gt;component name&lt;/span&gt;&lt;/font&gt;&lt;/p&gt;" style="rounded=1;whiteSpace=wrap;html=1;arcSize=50;fillColor=#e1d5e7;strokeColor=#9673a6;fontStyle=1" parent="iLg3TH4MNfudF1EWEq4q-13" vertex="1">
          <mxGeometry x="421.88" y="190" width="120" height="27.5" as="geometry" />
        </mxCell>
        <mxCell id="y_gY72rm-RhrGz0yiHBs-85" style="edgeStyle=orthogonalEdgeStyle;shape=connector;rounded=1;orthogonalLoop=1;jettySize=auto;html=1;exitX=1;exitY=0.5;exitDx=0;exitDy=0;labelBackgroundColor=default;strokeColor=#4F4F4F;strokeWidth=2;fontFamily=Helvetica;fontSize=12;fontColor=default;endArrow=none;endFill=0;" parent="iLg3TH4MNfudF1EWEq4q-13" source="y_gY72rm-RhrGz0yiHBs-82" target="y_gY72rm-RhrGz0yiHBs-84" edge="1">
          <mxGeometry relative="1" as="geometry" />
        </mxCell>
        <mxCell id="y_gY72rm-RhrGz0yiHBs-86" value="&lt;p&gt;&lt;font face=&quot;Courier New&quot;&gt;locations:&lt;/font&gt;&lt;/p&gt;" style="rounded=1;whiteSpace=wrap;html=1;arcSize=50;fillColor=#fad7ac;strokeColor=#b46504;fontStyle=1" parent="iLg3TH4MNfudF1EWEq4q-13" vertex="1">
          <mxGeometry x="561.88" y="190" width="80" height="27.5" as="geometry" />
        </mxCell>
        <mxCell id="y_gY72rm-RhrGz0yiHBs-96" style="edgeStyle=orthogonalEdgeStyle;shape=connector;rounded=1;orthogonalLoop=1;jettySize=auto;html=1;exitX=1;exitY=0.5;exitDx=0;exitDy=0;entryX=0;entryY=0.5;entryDx=0;entryDy=0;labelBackgroundColor=default;strokeColor=#4F4F4F;strokeWidth=2;fontFamily=Helvetica;fontSize=12;fontColor=default;endArrow=none;endFill=0;" parent="iLg3TH4MNfudF1EWEq4q-13" source="y_gY72rm-RhrGz0yiHBs-84" target="y_gY72rm-RhrGz0yiHBs-86" edge="1">
          <mxGeometry relative="1" as="geometry" />
        </mxCell>
        <mxCell id="y_gY72rm-RhrGz0yiHBs-87" value="&lt;p&gt;&lt;font face=&quot;Courier New&quot;&gt;&lt;span style=&quot;font-weight: normal;&quot;&gt;location-identifier:&lt;/span&gt;&lt;/font&gt;&lt;/p&gt;" style="rounded=1;whiteSpace=wrap;html=1;arcSize=50;fillColor=#fad9d5;strokeColor=#ae4132;fontStyle=1" parent="iLg3TH4MNfudF1EWEq4q-13" vertex="1">
          <mxGeometry x="160" y="266" width="160" height="27.5" as="geometry" />
        </mxCell>
        <mxCell id="y_gY72rm-RhrGz0yiHBs-88" style="edgeStyle=orthogonalEdgeStyle;shape=connector;rounded=1;orthogonalLoop=1;jettySize=auto;html=1;exitX=1;exitY=0.5;exitDx=0;exitDy=0;entryX=0;entryY=0.5;entryDx=0;entryDy=0;labelBackgroundColor=default;strokeColor=#4F4F4F;strokeWidth=2;fontFamily=Helvetica;fontSize=12;fontColor=default;endArrow=none;endFill=0;" parent="iLg3TH4MNfudF1EWEq4q-13" source="y_gY72rm-RhrGz0yiHBs-86" target="y_gY72rm-RhrGz0yiHBs-87" edge="1">
          <mxGeometry relative="1" as="geometry">
            <Array as="points">
              <mxPoint x="680" y="204" />
              <mxPoint x="680" y="230" />
              <mxPoint x="137" y="230" />
              <mxPoint x="137" y="280" />
            </Array>
          </mxGeometry>
        </mxCell>
        <mxCell id="y_gY72rm-RhrGz0yiHBs-89" value="&lt;p&gt;&lt;font face=&quot;Courier New&quot;&gt;&lt;span style=&quot;font-weight: normal;&quot;&gt;property-identifier:&lt;/span&gt;&lt;/font&gt;&lt;/p&gt;" style="rounded=1;whiteSpace=wrap;html=1;arcSize=50;fillColor=#fad9d5;strokeColor=#ae4132;fontStyle=1" parent="iLg3TH4MNfudF1EWEq4q-13" vertex="1">
          <mxGeometry x="360.5" y="266" width="162" height="27.5" as="geometry" />
        </mxCell>
        <mxCell id="y_gY72rm-RhrGz0yiHBs-90" style="edgeStyle=orthogonalEdgeStyle;shape=connector;rounded=1;orthogonalLoop=1;jettySize=auto;html=1;exitX=1;exitY=0.5;exitDx=0;exitDy=0;entryX=0;entryY=0.5;entryDx=0;entryDy=0;labelBackgroundColor=default;strokeColor=#4F4F4F;strokeWidth=2;fontFamily=Helvetica;fontSize=12;fontColor=default;endArrow=none;endFill=0;" parent="iLg3TH4MNfudF1EWEq4q-13" source="y_gY72rm-RhrGz0yiHBs-87" target="y_gY72rm-RhrGz0yiHBs-89" edge="1">
          <mxGeometry relative="1" as="geometry" />
        </mxCell>
        <mxCell id="y_gY72rm-RhrGz0yiHBs-95" style="edgeStyle=orthogonalEdgeStyle;shape=connector;rounded=1;orthogonalLoop=1;jettySize=auto;html=1;exitX=1;exitY=0.5;exitDx=0;exitDy=0;entryX=0;entryY=0.5;entryDx=0;entryDy=0;labelBackgroundColor=default;strokeColor=#4F4F4F;strokeWidth=2;fontFamily=Helvetica;fontSize=12;fontColor=default;endArrow=none;endFill=0;" parent="iLg3TH4MNfudF1EWEq4q-13" source="y_gY72rm-RhrGz0yiHBs-91" target="y_gY72rm-RhrGz0yiHBs-89" edge="1">
          <mxGeometry relative="1" as="geometry">
            <Array as="points">
              <mxPoint x="680" y="280" />
              <mxPoint x="680" y="250" />
              <mxPoint x="340" y="250" />
              <mxPoint x="340" y="280" />
            </Array>
          </mxGeometry>
        </mxCell>
        <mxCell id="y_gY72rm-RhrGz0yiHBs-100" style="edgeStyle=orthogonalEdgeStyle;shape=connector;rounded=1;orthogonalLoop=1;jettySize=auto;html=1;exitX=1;exitY=0.5;exitDx=0;exitDy=0;entryX=0;entryY=0.5;entryDx=0;entryDy=0;labelBackgroundColor=default;strokeColor=#4F4F4F;strokeWidth=2;fontFamily=Helvetica;fontSize=12;fontColor=default;endArrow=none;endFill=0;" parent="iLg3TH4MNfudF1EWEq4q-13" source="y_gY72rm-RhrGz0yiHBs-91" target="y_gY72rm-RhrGz0yiHBs-78" edge="1">
          <mxGeometry relative="1" as="geometry">
            <Array as="points">
              <mxPoint x="700" y="280" />
              <mxPoint x="700" y="170" />
              <mxPoint y="170" />
              <mxPoint y="204" />
            </Array>
          </mxGeometry>
        </mxCell>
        <mxCell id="y_gY72rm-RhrGz0yiHBs-108" style="edgeStyle=orthogonalEdgeStyle;shape=connector;rounded=1;orthogonalLoop=1;jettySize=auto;html=1;exitX=1;exitY=0.5;exitDx=0;exitDy=0;labelBackgroundColor=default;strokeColor=#4F4F4F;strokeWidth=2;fontFamily=Helvetica;fontSize=12;fontColor=default;endArrow=none;endFill=0;" parent="iLg3TH4MNfudF1EWEq4q-13" source="y_gY72rm-RhrGz0yiHBs-91" edge="1">
          <mxGeometry relative="1" as="geometry">
            <mxPoint x="730" y="280" as="targetPoint" />
          </mxGeometry>
        </mxCell>
        <mxCell id="y_gY72rm-RhrGz0yiHBs-91" value="&lt;p&gt;&lt;font face=&quot;Courier New&quot;&gt;&lt;span style=&quot;font-weight: 400;&quot;&gt;property value&lt;/span&gt;&lt;/font&gt;&lt;/p&gt;" style="rounded=1;whiteSpace=wrap;html=1;arcSize=50;fillColor=#e1d5e7;strokeColor=#9673a6;fontStyle=1" parent="iLg3TH4MNfudF1EWEq4q-13" vertex="1">
          <mxGeometry x="543.5" y="266" width="120" height="27.5" as="geometry" />
        </mxCell>
        <mxCell id="y_gY72rm-RhrGz0yiHBs-92" style="edgeStyle=orthogonalEdgeStyle;shape=connector;rounded=1;orthogonalLoop=1;jettySize=auto;html=1;exitX=1;exitY=0.5;exitDx=0;exitDy=0;entryX=0;entryY=0.5;entryDx=0;entryDy=0;labelBackgroundColor=default;strokeColor=#4F4F4F;strokeWidth=2;fontFamily=Helvetica;fontSize=12;fontColor=default;endArrow=none;endFill=0;" parent="iLg3TH4MNfudF1EWEq4q-13" source="y_gY72rm-RhrGz0yiHBs-89" target="y_gY72rm-RhrGz0yiHBs-91" edge="1">
          <mxGeometry relative="1" as="geometry" />
        </mxCell>
        <mxCell id="y_gY72rm-RhrGz0yiHBs-103" value="" style="endArrow=none;html=1;rounded=1;labelBackgroundColor=default;strokeColor=#4F4F4F;strokeWidth=2;fontFamily=Helvetica;fontSize=12;fontColor=default;shape=connector;startArrow=classicThin;startFill=1;" parent="iLg3TH4MNfudF1EWEq4q-13" edge="1">
          <mxGeometry width="50" height="50" relative="1" as="geometry">
            <mxPoint x="356.75" y="170" as="sourcePoint" />
            <mxPoint x="383.75" y="170" as="targetPoint" />
            <Array as="points">
              <mxPoint x="386.75" y="170" />
            </Array>
          </mxGeometry>
        </mxCell>
        <mxCell id="y_gY72rm-RhrGz0yiHBs-104" value="" style="endArrow=none;html=1;rounded=1;labelBackgroundColor=default;strokeColor=#4F4F4F;strokeWidth=2;fontFamily=Helvetica;fontSize=12;fontColor=default;shape=connector;startArrow=classicThin;startFill=1;" parent="iLg3TH4MNfudF1EWEq4q-13" edge="1">
          <mxGeometry width="50" height="50" relative="1" as="geometry">
            <mxPoint x="357" y="150" as="sourcePoint" />
            <mxPoint x="384" y="150" as="targetPoint" />
            <Array as="points">
              <mxPoint x="387" y="150" />
            </Array>
          </mxGeometry>
        </mxCell>
        <mxCell id="y_gY72rm-RhrGz0yiHBs-105" value="" style="endArrow=none;html=1;rounded=1;labelBackgroundColor=default;strokeColor=#4F4F4F;strokeWidth=2;fontFamily=Helvetica;fontSize=12;fontColor=default;shape=connector;startArrow=classicThin;startFill=1;" parent="iLg3TH4MNfudF1EWEq4q-13" edge="1">
          <mxGeometry width="50" height="50" relative="1" as="geometry">
            <mxPoint x="405" y="230" as="sourcePoint" />
            <mxPoint x="432" y="230" as="targetPoint" />
            <Array as="points">
              <mxPoint x="435" y="230" />
            </Array>
          </mxGeometry>
        </mxCell>
        <mxCell id="y_gY72rm-RhrGz0yiHBs-106" value="" style="endArrow=none;html=1;rounded=1;labelBackgroundColor=default;strokeColor=#4F4F4F;strokeWidth=2;fontFamily=Helvetica;fontSize=12;fontColor=default;shape=connector;startArrow=classicThin;startFill=1;" parent="iLg3TH4MNfudF1EWEq4q-13" edge="1">
          <mxGeometry width="50" height="50" relative="1" as="geometry">
            <mxPoint x="500" y="250" as="sourcePoint" />
            <mxPoint x="527" y="250" as="targetPoint" />
            <Array as="points">
              <mxPoint x="530" y="250" />
            </Array>
          </mxGeometry>
        </mxCell>
        <mxCell id="y_gY72rm-RhrGz0yiHBs-107" style="edgeStyle=orthogonalEdgeStyle;shape=connector;rounded=1;orthogonalLoop=1;jettySize=auto;html=1;labelBackgroundColor=default;strokeColor=#4F4F4F;strokeWidth=2;fontFamily=Helvetica;fontSize=12;fontColor=default;endArrow=doubleBlock;endFill=1;" parent="iLg3TH4MNfudF1EWEq4q-13" edge="1">
          <mxGeometry relative="1" as="geometry">
            <mxPoint x="745.75" y="279.6377777777777" as="targetPoint" />
            <mxPoint x="725.75" y="279.8599999999999" as="sourcePoint" />
          </mxGeometry>
        </mxCell>
      </root>
    </mxGraphModel>
  </diagram>
</mxfile>
